<?xml version="1.0" encoding="UTF-8" standalone="no"?><!DOCTYPE svg PUBLIC "-//W3C//DTD SVG 1.1//EN" "http://www.w3.org/Graphics/SVG/1.1/DTD/svg11.dtd"><svg width="675px" height="957px" version="1.1" xmlns="http://www.w3.org/2000/svg" xmlns:xlink="http://www.w3.org/1999/xlink" xml:space="preserve" xmlns:serif="http://www.serif.com/" style="fill-rule:evenodd;clip-rule:evenodd;stroke-linejoin:round;stroke-miterlimit:2;"><g id="He" transform="matrix(1.12167,0,0,1.12167,-1.80446,-1.0128)"><g transform="matrix(1.40178,0,0,1.40178,-6757.4,-312.526)"><path d="M4998.53,459.392C4892.73,432.373 4866.3,423.778 4850.42,338.923C4844.44,306.907 4845.28,259.425 4855.34,224.641C4888.26,254.303 4927.02,275.929 4971.06,290.27C5021.77,314.127 5030.8,345.352 5023.67,379.434C5020.63,412.274 5020.43,438.204 5024.1,454.732C4982.94,424.752 4946.34,383.267 4913.44,332.397C4934.15,379.214 4962.26,421.691 4998.53,459.392Z" style="fill:rgb(94,136,129);"/></g><g transform="matrix(1.40178,0,0,1.47724,-6757.4,-335.974)"><path d="M5034.51,481.342C5034.9,414.805 5040.24,355.312 5056.09,310.721L5085.1,355.651C5062.34,390.823 5054.68,433.275 5053.33,478.769C5046.7,481.46 5040.62,482.217 5034.51,481.342Z" style="fill:rgb(49,58,69);"/></g><g transform="matrix(1.40178,0,0,1.40178,-6757.4,-312.526)"><path d="M5059.78,458.916L5059.33,458.489C5074.34,372.161 5130.46,343.315 5209.41,346.398C5208.74,412.501 5160.64,448.823 5076.22,462.325C5103.48,432.063 5134.73,404.653 5168.43,378.994C5129.61,396.283 5094.62,426.322 5059.78,458.916Z" style="fill:rgb(94,136,129);"/></g><path d="M248.466,347.005C289.874,378.548 311.474,388.301 352.867,354.045C394.02,319.987 464.945,321.816 503.961,348.149C648.013,445.374 624.433,636.558 495.97,806.995C449.211,857.143 400.874,865.416 351.058,834.493C319.69,818.038 290.206,817.537 262.763,834.316C202.305,865.675 148.827,857.616 105.359,793.026C-16.553,625.679 -41.067,476.169 91.756,355.473C144.204,313.863 199.212,309.484 248.466,347.005Z" style="fill:rgb(111,160,89);stroke:black;stroke-width:2.4px;"/><path d="M143.284,367.206C53.062,490.876 51.312,613.734 118.547,735.959C13.09,603.228 12.769,479.571 143.284,367.206Z" style="fill:rgb(165,204,71);"/></g></svg>