<?xml version="1.0" encoding="UTF-8" standalone="no"?>
<!DOCTYPE svg PUBLIC "-//W3C//DTD SVG 1.1//EN" "http://www.w3.org/Graphics/SVG/1.1/DTD/svg11.dtd">
<svg width="100%" height="100%" viewBox="0 0 675 675" version="1.1" xmlns="http://www.w3.org/2000/svg" xmlns:xlink="http://www.w3.org/1999/xlink" xml:space="preserve" xmlns:serif="http://www.serif.com/" style="fill-rule:evenodd;clip-rule:evenodd;stroke-linejoin:round;stroke-miterlimit:2;">
    <g transform="matrix(4.16667,0,0,4.16667,-2.27374e-13,-10.2569)">
        <g transform="matrix(0.433583,0,0,0.448409,-4660.13,-3017.93)">
            <path d="M10905,6973.25C10893.6,6986.59 10883.9,7003.9 10881.3,7013.1C10879.6,7019.38 10877.4,7032.78 10878.3,7034.83C10881.6,7044.33 10855.6,7071.92 10823.3,7050.2L10802.2,7043.9C10782,7039.64 10777.4,7028.28 10775.2,7016.65L10760,6996.86C10751,6985.34 10750.7,6973.9 10753.8,6966.11C10752.6,6961.87 10755,6956.71 10752.5,6953.78C10748.3,6948.65 10750.6,6937.65 10754.3,6932.16C10766.2,6916.92 10789.3,6904.77 10817,6903.51C10841.1,6902.41 10883,6915.24 10883.3,6914.06C10831.5,6889.02 10784.5,6903.61 10767.2,6915.92C10761.7,6919.82 10758.4,6915.65 10757.4,6915.05C10746.6,6902.81 10751.2,6885.12 10759.4,6867.94C10763.9,6861.04 10769.9,6854.89 10778.3,6849.94C10784.7,6828.93 10801.1,6817.77 10825.1,6828.91C10857.1,6843.98 10880.6,6865.64 10897.7,6891.28C10899.4,6890.72 10875.8,6858.22 10851.8,6837.23C10823.6,6809.96 10823.3,6790.2 10840.2,6775.08L10847.2,6768.8C10850.9,6764.29 10857.7,6760.7 10861.8,6761.23C10865.7,6761.08 10869.8,6759.99 10874.5,6757.45C10879.9,6751.84 10884.8,6753.79 10890.1,6746.74C10893.9,6741.67 10917,6730.42 10945.6,6745.9C10964.1,6744.7 10973.3,6755.88 10982.4,6770.85C10983.9,6771.61 10986.6,6773.13 10986.6,6773.13C11003.5,6766.96 11027.5,6808.84 11002.3,6831.03C10982.9,6848.55 10967.4,6864.32 10957.2,6879.78C10958.9,6880.4 10993.9,6842.18 11021.4,6828.69C11030.8,6823.95 11041,6820.92 11052.5,6820.59C11068.7,6819.77 11078,6829.62 11085.7,6841.95C11124.7,6868.99 11123.8,6886.28 11112.5,6914.78L11107.7,6931.85C11117.5,6967.33 11088.3,6993.87 11065.8,6966.07C11044.7,6942.51 11019.8,6932.24 10992.2,6934.26C10992,6935.99 11036.1,6945.69 11057,6962.91C11088.2,6988.64 11090.3,7050.78 11025.2,7076.05C11015.5,7090.29 11002.3,7097.22 10982.3,7094.14L10959.4,7092.76C10925.7,7099.81 10897.2,7089.28 10885.4,7057.41C10877.3,7027.75 10906.2,6974.05 10905,6973.25Z" style="fill:rgb(230,153,141);stroke:black;stroke-width:2.27px;"/>
        </g>
        <g transform="matrix(0.217218,0,0,0.208108,9.5922,19.0191)">
            <path d="M231.08,245.545C252.161,277.719 287.956,296.301 259.367,230.478C254.632,219.576 217.251,167.343 178.702,132.06C128.758,81.479 128.227,44.827 158.158,16.781L170.555,5.133C177.108,-3.233 189.152,-9.891 196.413,-8.908C203.32,-9.187 210.582,-11.208 218.906,-15.92C228.469,-26.325 237.148,-22.708 246.534,-35.785C253.264,-45.189 294.176,-66.056 344.829,-37.343C377.594,-39.569 393.887,-18.832 410.004,8.935C412.661,10.345 417.443,13.164 417.443,13.164C447.374,1.72 489.842,79.392 445.211,120.569C410.876,153.051 358.539,218.835 360.788,218.076C343.522,249.936 376.761,256.725 392.7,236.989C392.779,236.818 392.858,236.648 392.939,236.478C399.732,232.774 458.851,166.332 505.604,142.335C522.181,133.586 540.168,127.994 560.448,127.385C589.016,125.871 605.416,144.051 618.995,166.808C687.769,216.716 686.182,248.627 666.255,301.229L657.791,332.735C675.072,398.219 623.575,447.2 583.898,395.89C548.345,354.405 507.281,331.829 461.262,333.271C395.826,335.322 412.418,357.887 449.852,371.351C449.829,371.35 522.323,393.564 558.276,424.312C614.642,472.385 618.487,588.491 500.878,635.704C483.354,662.31 459.507,675.258 423.375,669.503L382.004,666.925C321.121,680.097 269.565,660.43 248.247,600.885C235.505,552.318 273.971,466.013 280.551,447.201C289.962,420.295 276.863,393.589 248.056,436.179L248.045,436.194C228.902,461.377 212.805,493.056 208.464,510.143C205.41,522.164 201.7,547.789 203.272,551.711C209.033,569.885 163.59,622.669 107.198,581.117L70.36,569.065C35.093,560.915 27.062,539.183 23.221,516.934L-3.316,479.074C-19.029,457.036 -19.553,435.15 -14.141,420.247C-16.236,412.136 -12.046,402.265 -16.41,396.659C-23.743,386.845 -19.728,365.801 -13.268,355.299C7.508,326.144 47.82,302.907 96.25,300.492C135.139,298.553 195.928,314.601 206.094,315.978C241.402,320.76 287.073,314.586 204.851,281.338C118.435,241.973 40.477,265.7 11.61,285.744C2.343,292.179 -3.258,285.303 -4.947,284.315C-23.188,264.156 -15.418,235.021 -1.569,206.726C6.032,195.362 16.166,185.233 30.354,177.08C41.163,142.477 68.895,124.102 109.431,142.45C161.877,166.568 215.772,222.181 231.08,245.545Z" style="fill:rgb(175,74,59);"/>
        </g>
        <g transform="matrix(0.212118,1.38778e-17,-1.38778e-17,0.212118,6.48484,13.4572)">
            <path d="M318.671,352.419C324.879,357.903 326.8,364.298 325.422,371.393C306.508,407.433 282.725,425.935 247.751,404.131C247.751,404.131 260.527,388.463 258.879,383.19C257.231,377.917 237.862,372.496 237.862,372.496C253.126,335.218 282.552,335.051 318.671,352.419ZM331.42,380.625C338.725,376.719 345.388,377.148 351.557,380.915C378.738,411.21 387.784,439.952 355.153,465.126C355.153,465.126 344.923,447.688 339.407,447.394C333.89,447.1 322.055,463.362 322.055,463.362C292.44,436.056 302.545,408.419 331.42,380.625ZM341.195,334.897C337.56,342.341 331.907,345.894 324.7,346.452C284.928,337.807 260.766,319.802 272.481,280.288C272.481,280.288 290.984,288.436 295.628,285.444C300.272,282.453 300.346,262.34 300.346,262.34C340.341,267.138 348.33,295.46 341.195,334.897ZM369.582,357.134C406.349,341.186 435.747,342.499 449.547,380.343C449.547,380.343 429.982,385.006 428.129,390.211C426.277,395.415 438.433,411.57 438.433,411.57C402.636,431.994 379.592,412.58 362.096,375.831C360.995,368.687 363.164,362.372 369.582,357.134ZM350.777,334.185C347.456,294.245 358.124,266.82 398.395,265.879C398.395,265.879 396.54,285.907 400.876,289.33C405.212,292.753 424.411,286.417 424.411,286.417C432.282,326.872 406.506,342.477 366.087,347.268C358.968,346.021 353.682,341.943 350.777,334.185Z" style="fill:rgb(230,153,141);"/>
        </g>
        <g transform="matrix(0.24,0,0,0.24,-5.20765,8.76866)">
            <path d="M345.55,332.966C331.284,313.14 328.839,293.709 335.224,274.571C352.637,284.255 357.373,303.856 352.976,330.602C357.525,308.331 371.714,296.522 392.058,291.391C387.513,314.092 377.347,329.364 360.576,335.905C380.017,328.189 397.923,330.579 415.21,337.046C397.455,352.328 378.525,357.373 357.595,345.003C381.544,355.228 391.742,373.293 396.171,394.647C373.326,386.572 355.247,374.938 351.544,352.573C357.619,371.93 348.113,389.936 332.98,407.454C326.209,384.82 325.927,363.586 343.935,346.3C328.108,363.457 309.543,365.538 289.777,361.007C299.562,344.435 314.862,335.989 338.064,339.186C316.423,339.459 302.427,325.438 293.171,302.554C316.758,305.246 335.327,314.035 345.55,332.966Z" style="fill:rgb(175,74,59);"/>
        </g>
    </g>
</svg>
